<svg xmlns="http://www.w3.org/2000/svg" viewBox="0 0 100 100">
  <!-- Circular black night sky background -->
  <circle cx="50" cy="50" r="50" fill="#000000"/>
  
  <!-- Stars scattered across the night sky -->
  <circle cx="25" cy="20" r="1.5" fill="#ffffff" opacity="0.9"/>
  <circle cx="35" cy="15" r="1" fill="#ffffff" opacity="0.8"/>
  <circle cx="45" cy="25" r="1.5" fill="#ffffff" opacity="0.9"/>
  <circle cx="55" cy="18" r="1" fill="#ffffff" opacity="0.8"/>
  <circle cx="65" cy="22" r="1.2" fill="#ffffff" opacity="0.85"/>
  <circle cx="75" cy="15" r="1" fill="#ffffff" opacity="0.8"/>
  <circle cx="80" cy="28" r="1.5" fill="#ffffff" opacity="0.9"/>
  
  <circle cx="20" cy="35" r="1" fill="#ffffff" opacity="0.7"/>
  <circle cx="30" cy="40" r="1.2" fill="#ffffff" opacity="0.85"/>
  <circle cx="40" cy="38" r="1" fill="#ffffff" opacity="0.7"/>
  <circle cx="50" cy="42" r="1.5" fill="#ffffff" opacity="0.9"/>
  <circle cx="60" cy="38" r="1" fill="#ffffff" opacity="0.7"/>
  <circle cx="70" cy="42" r="1.2" fill="#ffffff" opacity="0.85"/>
  <circle cx="78" cy="36" r="1" fill="#ffffff" opacity="0.7"/>
  
  <circle cx="22" cy="50" r="1.2" fill="#ffffff" opacity="0.85"/>
  <circle cx="35" cy="55" r="1" fill="#ffffff" opacity="0.7"/>
  <circle cx="48" cy="58" r="1.5" fill="#ffffff" opacity="0.9"/>
  <circle cx="62" cy="55" r="1.2" fill="#ffffff" opacity="0.85"/>
  <circle cx="75" cy="52" r="1" fill="#ffffff" opacity="0.7"/>
  
  <circle cx="25" cy="65" r="1" fill="#ffffff" opacity="0.7"/>
  <circle cx="38" cy="68" r="1.5" fill="#ffffff" opacity="0.9"/>
  <circle cx="52" cy="72" r="1.2" fill="#ffffff" opacity="0.85"/>
  <circle cx="65" cy="68" r="1" fill="#ffffff" opacity="0.7"/>
  <circle cx="78" cy="65" r="1.2" fill="#ffffff" opacity="0.85"/>
  
  <circle cx="30" cy="78" r="1" fill="#ffffff" opacity="0.7"/>
  <circle cx="45" cy="82" r="1.5" fill="#ffffff" opacity="0.9"/>
  <circle cx="60" cy="80" r="1.2" fill="#ffffff" opacity="0.85"/>
  <circle cx="75" cy="78" r="1" fill="#ffffff" opacity="0.7"/>
  
  <!-- Bright stars (larger) -->
  <circle cx="50" cy="30" r="2" fill="#ffffff" opacity="1"/>
  <circle cx="30" cy="60" r="2" fill="#ffffff" opacity="1"/>
  <circle cx="70" cy="75" r="2" fill="#ffffff" opacity="1"/>
</svg>
